<mxfile host="app.diagrams.net" agent="Mozilla/5.0 (Windows NT 10.0; Win64; x64) AppleWebKit/537.36 (KHTML, like Gecko) Chrome/132.0.0.0 Safari/537.36 Edg/132.0.0.0" version="26.0.6">
  <diagram name="Page-1" id="tZi5E_A1_K1KzPg2U-rU">
    <mxGraphModel dx="1158" dy="628" grid="1" gridSize="10" guides="1" tooltips="1" connect="1" arrows="1" fold="1" page="1" pageScale="1" pageWidth="850" pageHeight="1100" math="0" shadow="0">
      <root>
        <mxCell id="0" />
        <mxCell id="1" parent="0" />
        <mxCell id="9JgG36cHJ_XeaQZXqGCR-2" value="&lt;b&gt;Checkout&lt;/b&gt;" style="ellipse;whiteSpace=wrap;html=1;" vertex="1" parent="1">
          <mxGeometry x="70" y="330" width="120" height="80" as="geometry" />
        </mxCell>
        <mxCell id="9JgG36cHJ_XeaQZXqGCR-3" value="&lt;b&gt;Customer&lt;/b&gt;&lt;div&gt;&lt;b&gt;Authentication&lt;/b&gt;&lt;/div&gt;" style="ellipse;whiteSpace=wrap;html=1;" vertex="1" parent="1">
          <mxGeometry x="280" y="110" width="120" height="80" as="geometry" />
        </mxCell>
        <mxCell id="9JgG36cHJ_XeaQZXqGCR-4" value="&lt;b&gt;View / Update&lt;/b&gt;&lt;div&gt;&lt;b&gt;Shopping Cart&lt;/b&gt;&lt;/div&gt;" style="ellipse;whiteSpace=wrap;html=1;" vertex="1" parent="1">
          <mxGeometry x="280" y="340" width="120" height="80" as="geometry" />
        </mxCell>
        <mxCell id="9JgG36cHJ_XeaQZXqGCR-7" value="&lt;b&gt;Calculate Taxes &amp;amp;&lt;/b&gt;&lt;div&gt;&lt;b&gt;Shipping&lt;/b&gt;&lt;/div&gt;" style="ellipse;whiteSpace=wrap;html=1;" vertex="1" parent="1">
          <mxGeometry x="280" y="470" width="120" height="80" as="geometry" />
        </mxCell>
        <mxCell id="9JgG36cHJ_XeaQZXqGCR-8" value="&lt;b&gt;&lt;i&gt;Payment&lt;/i&gt;&lt;/b&gt;" style="ellipse;whiteSpace=wrap;html=1;" vertex="1" parent="1">
          <mxGeometry x="280" y="600" width="120" height="80" as="geometry" />
        </mxCell>
        <mxCell id="9JgG36cHJ_XeaQZXqGCR-9" value="&lt;b&gt;Calculate Total&lt;/b&gt;" style="ellipse;whiteSpace=wrap;html=1;" vertex="1" parent="1">
          <mxGeometry x="460" y="340" width="120" height="80" as="geometry" />
        </mxCell>
        <mxCell id="9JgG36cHJ_XeaQZXqGCR-10" value="&lt;b&gt;User Sign-in&lt;/b&gt;" style="ellipse;whiteSpace=wrap;html=1;" vertex="1" parent="1">
          <mxGeometry x="460" y="10" width="120" height="80" as="geometry" />
        </mxCell>
        <mxCell id="9JgG36cHJ_XeaQZXqGCR-11" value="&lt;b&gt;Remember Me&lt;/b&gt;" style="ellipse;whiteSpace=wrap;html=1;" vertex="1" parent="1">
          <mxGeometry x="460" y="110" width="120" height="80" as="geometry" />
        </mxCell>
        <mxCell id="9JgG36cHJ_XeaQZXqGCR-12" value="&lt;b&gt;Single Sign-on&lt;/b&gt;" style="ellipse;whiteSpace=wrap;html=1;" vertex="1" parent="1">
          <mxGeometry x="460" y="220" width="120" height="80" as="geometry" />
        </mxCell>
        <mxCell id="9JgG36cHJ_XeaQZXqGCR-13" value="&lt;b&gt;&amp;lt;&amp;lt;service&amp;gt;&amp;gt;&lt;/b&gt;&lt;div&gt;&lt;b&gt;Authentication&lt;/b&gt;&lt;/div&gt;" style="shape=umlActor;verticalLabelPosition=bottom;verticalAlign=top;html=1;outlineConnect=0;" vertex="1" parent="1">
          <mxGeometry x="690" y="20" width="30" height="60" as="geometry" />
        </mxCell>
        <mxCell id="9JgG36cHJ_XeaQZXqGCR-15" value="&lt;b&gt;Identity&lt;/b&gt;&lt;div&gt;&lt;b&gt;Provider&lt;/b&gt;&lt;/div&gt;" style="shape=umlActor;verticalLabelPosition=bottom;verticalAlign=top;html=1;outlineConnect=0;" vertex="1" parent="1">
          <mxGeometry x="690" y="220" width="30" height="60" as="geometry" />
        </mxCell>
        <mxCell id="9JgG36cHJ_XeaQZXqGCR-16" value="&lt;b&gt;Payment&amp;nbsp;&lt;/b&gt;&lt;div&gt;&lt;b&gt;By Credit&lt;/b&gt;&lt;/div&gt;" style="ellipse;whiteSpace=wrap;html=1;" vertex="1" parent="1">
          <mxGeometry x="460" y="540" width="120" height="80" as="geometry" />
        </mxCell>
        <mxCell id="9JgG36cHJ_XeaQZXqGCR-17" value="&lt;b&gt;User Sign-in&lt;/b&gt;" style="ellipse;whiteSpace=wrap;html=1;" vertex="1" parent="1">
          <mxGeometry x="460" y="690" width="120" height="80" as="geometry" />
        </mxCell>
        <mxCell id="9JgG36cHJ_XeaQZXqGCR-21" value="&lt;b&gt;Credit&lt;/b&gt;&lt;div&gt;&lt;b&gt;Payment Service&lt;/b&gt;&lt;/div&gt;" style="shape=umlActor;verticalLabelPosition=bottom;verticalAlign=top;html=1;outlineConnect=0;" vertex="1" parent="1">
          <mxGeometry x="690" y="550" width="30" height="60" as="geometry" />
        </mxCell>
        <mxCell id="9JgG36cHJ_XeaQZXqGCR-23" value="&lt;b&gt;Paypal&lt;/b&gt;" style="shape=umlActor;verticalLabelPosition=bottom;verticalAlign=top;html=1;outlineConnect=0;" vertex="1" parent="1">
          <mxGeometry x="690" y="700" width="30" height="60" as="geometry" />
        </mxCell>
        <mxCell id="9JgG36cHJ_XeaQZXqGCR-25" value="" style="endArrow=classic;html=1;rounded=0;entryX=0;entryY=1;entryDx=0;entryDy=0;strokeColor=none;" edge="1" parent="1" source="9JgG36cHJ_XeaQZXqGCR-2" target="9JgG36cHJ_XeaQZXqGCR-3">
          <mxGeometry width="50" height="50" relative="1" as="geometry">
            <mxPoint x="400" y="320" as="sourcePoint" />
            <mxPoint x="450" y="270" as="targetPoint" />
          </mxGeometry>
        </mxCell>
      </root>
    </mxGraphModel>
  </diagram>
</mxfile>
